<?xml version="1.0" encoding="UTF-8"?>
<svg version="1.1" xmlns="http://www.w3.org/2000/svg" width="1093" height="980">
<path d="M0 0 C360.69 0 721.38 0 1093 0 C1093 323.4 1093 646.8 1093 980 C732.31 980 371.62 980 0 980 C0 656.6 0 333.2 0 0 Z " fill="#EDEDED" transform="translate(0,0)"/>
<path d="M0 0 C112.53 0 225.06 0 341 0 C341 75.57 341 151.14 341 229 C228.47 229 115.94 229 0 229 C0 153.43 0 77.86 0 0 Z " fill="#EDEDED" transform="translate(376,376)"/>
<path d="M0 0 C112.53 0 225.06 0 341 0 C341 75.57 341 151.14 341 229 C228.47 229 115.94 229 0 229 C0 153.43 0 77.86 0 0 Z M9 9 C9 68.4 9 127.8 9 189 C9.99 189 10.98 189 12 189 C13.05180058 187.36552965 14.04418449 185.69239312 15 184 C16.27575673 182.55479203 17.60241107 181.15347377 18.96733093 179.79216003 C19.77079956 178.98594208 20.57426819 178.17972412 21.40208435 177.34907532 C22.71838585 176.04355965 22.71838585 176.04355965 24.0612793 174.71166992 C24.98830658 173.78435059 25.91533386 172.85703125 26.87045288 171.90161133 C29.40499235 169.36649925 31.94564031 166.83759075 34.48744559 164.30976653 C37.14558949 161.6641453 39.79805141 159.01283979 42.4511261 156.36213684 C47.47255106 151.34692213 52.4990514 146.33682647 57.52740365 141.32855827 C63.2532024 135.62513267 68.97330705 129.91601087 74.69294488 124.2064079 C86.45564735 112.46459714 98.22546558 100.72994605 110 89 C113.15227151 90.39636521 115.27940382 92.03170975 117.70794678 94.46743774 C118.42864853 95.18539017 119.14935028 95.90334259 119.89189148 96.64305115 C120.67232315 97.43067337 121.45275482 98.21829559 122.25683594 99.02978516 C123.50129234 100.27380348 123.50129234 100.27380348 124.77088928 101.54295349 C127.51348464 104.28694281 130.2489268 107.03794973 132.984375 109.7890625 C134.88338767 111.69291568 136.7839031 113.59526595 138.68438721 115.49765015 C143.17547851 119.99495491 147.66144767 124.49733311 152.14559674 129.00155866 C157.25167538 134.13000044 162.36344159 139.25275698 167.47569227 144.37504506 C177.99013346 154.91038522 188.49741465 165.45283982 199 176 C202.97863507 174.16002467 205.70216899 171.55983757 208.74658203 168.46459961 C209.30966064 167.90020676 209.87273926 167.3358139 210.45288086 166.75431824 C212.309168 164.89155064 214.15837932 163.02191421 216.0078125 161.15234375 C217.29716898 159.85671613 218.58704245 158.56160281 219.87741089 157.26698303 C223.27076631 153.86033119 226.658508 150.4481556 230.04467773 147.03436279 C235.47068811 141.56521051 240.90345364 136.10278845 246.33944321 130.64355659 C248.2396852 128.73306879 250.13649099 126.81921705 252.0329895 124.90501404 C253.19261397 123.73856393 254.35234719 122.57222193 255.51220703 121.40600586 C256.04107513 120.87040039 256.56994324 120.33479492 257.11483765 119.78295898 C260.77273048 116.11363476 260.77273048 116.11363476 263 115 C263.25910156 115.59941406 263.51820313 116.19882812 263.78515625 116.81640625 C265.0934352 119.16794302 266.32716438 120.29915342 268.4375 121.9375 C270.65133661 123.75212017 271.96814076 124.94597781 273.4375 127.4375 C275.45794802 130.75103476 278.07028637 132.82134351 281.01953125 135.30859375 C283.48085985 137.41067518 285.71188027 139.71188027 288 142 C289.11987133 142.9436204 290.24529193 143.88067871 291.375 144.8125 C293.81521991 146.87889899 295.93832445 148.99520742 298 151.4375 C303.37306689 157.76741442 309.41229409 163.48861846 315.30834961 169.32495117 C318.21232174 172.20042422 321.11104317 175.07897659 323.94921875 178.01953125 C324.52285156 178.61121094 325.09648438 179.20289063 325.6875 179.8125 C326.26886719 180.41707031 326.85023438 181.02164063 327.44921875 181.64453125 C328.90769892 183.21936724 328.90769892 183.21936724 331 183 C331 125.58 331 68.16 331 9 C224.74 9 118.48 9 9 9 Z " fill="#676767" transform="translate(376,376)"/>
<path d="M0 0 C5.82094923 3.34657179 9.96123163 7.81713876 13.0625 13.75 C14.49804773 22.04427576 14.53145326 29.26651436 10.3203125 36.73828125 C6.64259176 41.64473357 1.33764773 45.71708449 -4.375 48 C-13.03695445 48.95281499 -19.91051804 47.91161867 -27.25 43.125 C-29.52626876 40.84873124 -30.44134709 39.05559134 -31.375 36 C-32.035 36 -32.695 36 -33.375 36 C-36.63077544 28.81016257 -38.11769934 21.82080048 -35.35546875 14.1796875 C-33.49043747 10.31439609 -31.71072645 6.7902055 -28.375 4 C-27.715 4 -27.055 4 -26.375 4 C-26.375 3.34 -26.375 2.68 -26.375 2 C-18.10084141 -3.19162892 -9.05279211 -4.07099645 0 0 Z " fill="#686868" transform="translate(602.375,428)"/>
<path d="M0 0 C0.33 0.66 0.66 1.32 1 2 C1.66 2 2.32 2 3 2 C3 1.34 3 0.68 3 0 C3.66 0 4.32 0 5 0 C5 0.66 5 1.32 5 2 C5.66 2.33 6.32 2.66 7 3 C5.68 4.32 4.36 5.64 3 7 C-0.16115776 5.63016497 -0.9927092 5.0109362 -3 2 C-2.01 1.34 -1.02 0.68 0 0 Z " fill="#E7E7E7" transform="translate(574,545)"/>
<path d="M0 0 C0.66 0.33 1.32 0.66 2 1 C1.071875 1.804375 1.071875 1.804375 0.125 2.625 C-2.2782902 5.31103023 -3.06022153 7.55414562 -4 11 C-6.46800047 9.84826645 -8.04783565 8.95216435 -10 7 C-9.36191406 6.57847656 -8.72382812 6.15695312 -8.06640625 5.72265625 C-7.24011719 5.17480469 -6.41382813 4.62695312 -5.5625 4.0625 C-4.73878906 3.51722656 -3.91507813 2.97195313 -3.06640625 2.41015625 C-1.10014075 1.16197019 -1.10014075 1.16197019 0 0 Z " fill="#E4E4E4" transform="translate(610,467)"/>
<path d="M0 0 C3.36720387 1.39332574 4.9859524 2.9789286 7 6 C6.01 6.33 5.02 6.66 4 7 C2.5 5.625 2.5 5.625 1 4 C1 3.34 1 2.68 1 2 C0.34 1.67 -0.32 1.34 -1 1 C-0.67 0.67 -0.34 0.34 0 0 Z " fill="#787878" transform="translate(486,464)"/>
<path d="M0 0 C-2.97 2.475 -2.97 2.475 -6 5 C-6.33 3.35 -6.66 1.7 -7 0 C-2.25 -1.125 -2.25 -1.125 0 0 Z " fill="#E5E5E5" transform="translate(592,537)"/>
<path d="M0 0 C-2.97 2.475 -2.97 2.475 -6 5 C-6.33 3.35 -6.66 1.7 -7 0 C-2.25 -1.125 -2.25 -1.125 0 0 Z " fill="#E6E6E6" transform="translate(600,529)"/>
</svg>
